<svg viewBox="0 0 12 6" xmlns="http://www.w3.org/2000/svg">
<path d="M0 0.375C0 0.272059 0.0394867 0.183824 0.11846 0.110294C0.197433 0.0367647 0.292201 0 0.402764 0C0.513327 0 0.608095 0.0367647 0.687068 0.110294L6.04146 5.09559L11.3129 0.1875C11.3919 0.113971 11.4867 0.0772059 11.5972 0.0772059C11.7078 0.0772059 11.8026 0.113971 11.8815 0.1875C11.9605 0.261029 12 0.349265 12 0.452206C12 0.555147 11.9605 0.643382 11.8815 0.716912L6.32577 5.88971C6.24679 5.96324 6.15202 6 6.04146 6C5.9309 6 5.83613 5.96324 5.75716 5.88971L0.11846 0.650735C0.102665 0.636029 0.088845 0.619485 0.076999 0.601103C0.065153 0.582721 0.0552813 0.564338 0.047384 0.545956L0.023692 0.490809L0.005923 0.435662L0 0.375Z" />
</svg>
