<svg viewBox="0 0 6 9" xmlns="http://www.w3.org/2000/svg">
<path d="M0.854492 8.92969C0.772461 8.92969 0.702148 8.90039 0.643555 8.8418C0.584961 8.7832 0.555664 8.71289 0.555664 8.63086C0.555664 8.54883 0.584961 8.47852 0.643555 8.41992L4.61621 4.44727L0.705078 0.536133C0.646484 0.477539 0.617188 0.407227 0.617188 0.325195C0.617188 0.243164 0.646484 0.172852 0.705078 0.114258C0.763672 0.0556641 0.833984 0.0263672 0.916016 0.0263672C0.998047 0.0263672 1.06836 0.0556641 1.12695 0.114258L5.24902 4.23633C5.30762 4.29492 5.33691 4.36523 5.33691 4.44727C5.33691 4.5293 5.30762 4.59961 5.24902 4.6582L1.07422 8.8418C1.0625 8.85352 1.04932 8.86377 1.03467 8.87256C1.02002 8.88135 1.00537 8.88867 0.990723 8.89453L0.946777 8.91211L0.902832 8.92529L0.854492 8.92969Z"/>
</svg>
