<svg viewBox="0 0 31 31" xmlns="http://www.w3.org/2000/svg">
<path d="M23.5058 11.6528C23.3532 11.3646 23.0724 11.1663 22.7496 11.1191H8.25039C7.92766 11.1664 7.64682 11.3646 7.49426 11.6528L3.62492 17.924L3.49152 18.2353V18.4576C3.49152 18.5466 3.53595 18.6356 3.53595 18.7245H3.58039L3.71379 18.9469L14.8328 30.7776L15.0108 30.911L15.2331 30.9999H15.8558C15.8558 30.9753 15.8757 30.9555 15.9002 30.9555H16.0336L16.1226 30.8665H16.167L27.2861 19.0358L27.4195 18.8135H27.4639C27.4639 18.7245 27.5084 18.6356 27.5084 18.5466V18.2353L27.3749 18.0129L23.5058 11.6528ZM12.7426 12.8981H18.2131L19.1916 17.3458H11.853L12.7426 12.8981ZM8.73964 12.8981H10.919L10.0294 17.3458H5.98209L8.73964 12.8981ZM6.4269 19.1248H10.1629L12.9205 26.0187L6.4269 19.1248ZM15.5 27.6198L12.0753 19.1248H18.9246L15.5 27.6198ZM18.0796 26.0187L20.8372 19.1248H24.5732L18.0796 26.0187ZM21.0151 17.3458L20.0366 12.8981H22.2604L25.0179 17.3458H21.0151Z" />
<path d="M23.5058 11.6528C23.3532 11.3646 23.0724 11.1663 22.7496 11.1191H8.25039C7.92766 11.1664 7.64682 11.3646 7.49426 11.6528L3.62492 17.924L3.49152 18.2353V18.4576C3.49152 18.5466 3.53595 18.6356 3.53595 18.7245H3.58039L3.71379 18.9469L14.8328 30.7776L15.0108 30.911L15.2331 30.9999H15.8558C15.8558 30.9753 15.8757 30.9555 15.9002 30.9555H16.0336L16.1226 30.8665H16.167L27.2861 19.0358L27.4195 18.8135H27.4639C27.4639 18.7245 27.5084 18.6356 27.5084 18.5466V18.2353L27.3749 18.0129L23.5058 11.6528ZM12.7426 12.8981H18.2131L19.1916 17.3458H11.853L12.7426 12.8981ZM8.73964 12.8981H10.919L10.0294 17.3458H5.98209L8.73964 12.8981ZM6.4269 19.1248H10.1629L12.9205 26.0187L6.4269 19.1248ZM15.5 27.6198L12.0753 19.1248H18.9246L15.5 27.6198ZM18.0796 26.0187L20.8372 19.1248H24.5732L18.0796 26.0187ZM21.0151 17.3458L20.0366 12.8981H22.2604L25.0179 17.3458H21.0151Z" />
<path d="M15.5001 6.2267C15.9914 6.2267 16.3896 5.82846 16.3896 5.33717V0.889528C16.3896 0.39824 15.9914 0 15.5001 0C15.0088 0 14.6105 0.39824 14.6105 0.889528V5.33717C14.6105 5.82846 15.0089 6.2267 15.5001 6.2267Z" />
<path d="M15.5001 6.2267C15.9914 6.2267 16.3896 5.82846 16.3896 5.33717V0.889528C16.3896 0.39824 15.9914 0 15.5001 0C15.0088 0 14.6105 0.39824 14.6105 0.889528V5.33717C14.6105 5.82846 15.0089 6.2267 15.5001 6.2267Z" />
<path d="M28.9319 4.53661C28.5286 4.28582 28.0035 4.3609 27.6865 4.71453L25.0179 8.27265C24.7184 8.67991 24.7973 9.25148 25.1958 9.56246C25.3579 9.66172 25.5405 9.72259 25.7295 9.74038C26.0079 9.73383 26.2688 9.60332 26.4411 9.38454L29.1097 5.82642C29.4093 5.41916 29.3305 4.84751 28.9319 4.53661Z" />
<path d="M28.9319 4.53661C28.5286 4.28582 28.0035 4.3609 27.6865 4.71453L25.0179 8.27265C24.7184 8.67991 24.7973 9.25148 25.1958 9.56246C25.3579 9.66172 25.5405 9.72259 25.7295 9.74038C26.0079 9.73383 26.2688 9.60332 26.4411 9.38454L29.1097 5.82642C29.4093 5.41916 29.3305 4.84751 28.9319 4.53661Z" />
<path d="M5.27052 9.74026C5.45968 9.72247 5.6422 9.6616 5.8042 9.56234C6.20278 9.25135 6.28161 8.67979 5.98212 8.27253L3.31354 4.7145C2.9966 4.36087 2.47151 4.28587 2.06816 4.53657C1.66958 4.84756 1.59075 5.41912 1.89024 5.82639L4.55883 9.3845C4.73122 9.6032 4.99214 9.7337 5.27052 9.74026Z" />
<path d="M5.27052 9.74026C5.45968 9.72247 5.6422 9.6616 5.8042 9.56234C6.20278 9.25135 6.28161 8.67979 5.98212 8.27253L3.31354 4.7145C2.9966 4.36087 2.47151 4.28587 2.06816 4.53657C1.66958 4.84756 1.59075 5.41912 1.89024 5.82639L4.55883 9.3845C4.73122 9.6032 4.99214 9.7337 5.27052 9.74026Z" />
</svg>
