<svg viewBox="0 0 22 22" xmlns="http://www.w3.org/2000/svg">
  <path d="M19.8621 5.18646L11.2832 4.58943V3.04964C11.284 1.36615 9.91993 0.000781927 8.2365 0C8.20457 0 8.17269 0.000481186 8.14075 0.00144356H3.48997C1.76161 0.00144356 0.284668 1.28982 0.284668 3.04964V18.9504C0.284668 20.7101 1.76161 21.9985 3.48997 21.9985H8.14075C9.8234 22.0506 11.2297 20.7287 11.2817 19.0461C11.2827 19.0142 11.2832 18.9822 11.2832 18.9503V9.49163L19.8621 8.89454C20.886 8.89412 21.7158 8.06371 21.7154 7.03975C21.7149 6.01639 20.8854 5.18688 19.8621 5.18646ZM10.0262 18.9504C10.0276 19.9396 9.22672 20.7427 8.23753 20.744C8.20529 20.7441 8.17299 20.7433 8.14075 20.7416H3.48997C2.45295 20.7416 1.54165 20.0188 1.54165 18.9504V3.04964C1.54165 1.98122 2.45295 1.25842 3.48997 1.25842H8.14075C9.12862 1.20633 9.97166 1.96498 10.0237 2.95286C10.0254 2.9851 10.0263 3.01734 10.0262 3.04964V4.49518L7.54366 4.33807C7.02392 4.01652 6.4264 3.84269 5.8153 3.83529C4.04508 3.83601 2.6106 5.27163 2.61132 7.04185C2.61204 8.81105 4.0461 10.2452 5.8153 10.2458C6.4264 10.2384 7.02392 10.0646 7.54366 9.74305L10.0262 9.55449V18.9504ZM5.41297 8.90068C5.43161 8.91986 5.4505 8.93881 5.46969 8.9574C4.54882 8.77882 3.87967 7.97848 3.86704 7.04053C3.86728 6.09807 4.54214 5.29088 5.46969 5.12367C4.41102 6.15094 4.38563 7.84201 5.41297 8.90068ZM19.7678 7.63756L7.4494 8.48601C7.05032 8.5147 6.65906 8.36512 6.38099 8.07749C6.08542 7.8132 5.91442 7.43697 5.90961 7.04047C5.92038 6.63628 6.08963 6.25247 6.38099 5.97206C6.64895 5.73189 6.99535 5.59782 7.35515 5.59499H7.4494L19.7678 6.44344C20.0975 6.44362 20.3647 6.7111 20.3644 7.04089C20.3643 7.37032 20.0973 7.63738 19.7678 7.63756Z"/>
  <path d="M5.84722 12.6967C5.83663 12.6967 5.82611 12.6967 5.81552 12.6969C4.68744 12.6968 3.77283 13.6111 3.77271 14.7392C3.77271 14.7498 3.77277 14.7603 3.77295 14.7709C3.78299 15.2064 3.91351 15.6306 4.15001 15.9964L4.49569 18.6047C4.52811 18.927 4.80022 19.1719 5.12418 19.1703H6.53826C6.85614 19.1707 7.11857 18.9221 7.13535 18.6047L7.48102 15.9964C7.72733 15.6119 7.85821 15.1647 7.85809 14.7081C7.85827 13.5973 6.95798 12.6968 5.84722 12.6967ZM6.41261 15.3365C6.3171 15.4268 6.26068 15.5508 6.2555 15.6822L5.97269 17.9133H5.65847L5.37566 15.6822C5.37048 15.5509 5.31406 15.4268 5.21855 15.3365C5.10481 15.1689 5.03955 14.9731 5.02998 14.7709C5.02968 14.3316 5.37668 13.9707 5.81558 13.9538C6.23175 13.9364 6.58319 14.2597 6.60051 14.6759C6.60094 14.6866 6.60118 14.6973 6.60118 14.708C6.60178 14.9316 6.53622 15.1503 6.41261 15.3365Z" />
</svg>
