<svg viewBox="0 0 28 31" xmlns="http://www.w3.org/2000/svg">
<path d="M24.8684 16.342L17.7632 15.3206L14.5659 8.88158C14.3521 8.4401 13.8209 8.25557 13.3794 8.46942C13.1996 8.55654 13.0543 8.70172 12.9673 8.88158L9.76996 15.3206L2.66478 16.342C2.32827 16.3958 2.05219 16.6373 1.95428 16.9636C1.86792 17.2781 1.95207 17.6149 2.17629 17.8518L7.32753 22.8698L6.12854 29.9306C6.07457 30.2695 6.21099 30.6106 6.48384 30.8187C6.75252 31.0231 7.11393 31.0576 7.41635 30.9075L13.7666 27.5326L20.1168 30.9075L20.5165 30.9964C20.7109 31.0129 20.9036 30.9486 21.0493 30.8187C21.3221 30.6106 21.4586 30.2695 21.4046 29.9306L20.2056 22.8698L25.3569 17.8518C25.5811 17.6149 25.6653 17.2781 25.5789 16.9636C25.481 16.6373 25.2049 16.3958 24.8684 16.342ZM18.607 21.9373C18.4253 22.1439 18.344 22.4202 18.385 22.6923L19.3619 28.4652L14.1662 25.7564C13.9133 25.6364 13.6199 25.6364 13.3669 25.7564L8.17122 28.4652L9.14819 22.6923C9.18916 22.4202 9.10791 22.144 8.92618 21.9373L4.70746 17.8519L10.5248 17.0081C10.8108 16.9579 11.0571 16.7772 11.191 16.5196L13.7666 11.2796L16.3422 16.5196C16.4761 16.7772 16.7223 16.9579 17.0083 17.0081L22.8257 17.8519L18.607 21.9373Z" />
<path d="M24.8684 16.342L17.7632 15.3206L14.5659 8.88158C14.3521 8.4401 13.8209 8.25557 13.3794 8.46942C13.1996 8.55654 13.0543 8.70172 12.9673 8.88158L9.76996 15.3206L2.66478 16.342C2.32827 16.3958 2.05219 16.6373 1.95428 16.9636C1.86792 17.2781 1.95207 17.6149 2.17629 17.8518L7.32753 22.8698L6.12854 29.9306C6.07457 30.2695 6.21099 30.6106 6.48384 30.8187C6.75252 31.0231 7.11393 31.0576 7.41635 30.9075L13.7666 27.5326L20.1168 30.9075L20.5165 30.9964C20.7109 31.0129 20.9036 30.9486 21.0493 30.8187C21.3221 30.6106 21.4586 30.2695 21.4046 29.9306L20.2056 22.8698L25.3569 17.8518C25.5811 17.6149 25.6653 17.2781 25.5789 16.9636C25.481 16.6373 25.2049 16.3958 24.8684 16.342ZM18.607 21.9373C18.4253 22.1439 18.344 22.4202 18.385 22.6923L19.3619 28.4652L14.1662 25.7564C13.9133 25.6364 13.6199 25.6364 13.3669 25.7564L8.17122 28.4652L9.14819 22.6923C9.18916 22.4202 9.10791 22.144 8.92618 21.9373L4.70746 17.8519L10.5248 17.0081C10.8108 16.9579 11.0571 16.7772 11.191 16.5196L13.7666 11.2796L16.3422 16.5196C16.4761 16.7772 16.7223 16.9579 17.0083 17.0081L22.8257 17.8519L18.607 21.9373Z" />
<path d="M13.7667 6.21703C14.2572 6.21703 14.6548 5.81941 14.6548 5.32889V0.888148C14.6548 0.397622 14.2571 0 13.7667 0C13.2762 0 12.8785 0.397622 12.8785 0.888148V5.32889C12.8785 5.81941 13.2762 6.21703 13.7667 6.21703Z" />
<path d="M13.7667 6.21703C14.2572 6.21703 14.6548 5.81941 14.6548 5.32889V0.888148C14.6548 0.397622 14.2571 0 13.7667 0C13.2762 0 12.8785 0.397622 12.8785 0.888148V5.32889C12.8785 5.81941 13.2762 6.21703 13.7667 6.21703Z" />
<path d="M27.177 4.70724C26.7846 4.41289 26.2279 4.49245 25.9336 4.88489L23.2692 8.43748C22.9749 8.82992 23.0544 9.38657 23.4468 9.68092C23.599 9.79924 23.787 9.86197 23.9797 9.85857C24.2576 9.85202 24.5181 9.72172 24.6902 9.50327L27.3546 5.95068C27.649 5.55825 27.5695 5.00151 27.177 4.70724Z" />
<path d="M27.177 4.70724C26.7846 4.41289 26.2279 4.49245 25.9336 4.88489L23.2692 8.43748C22.9749 8.82992 23.0544 9.38657 23.4468 9.68092C23.599 9.79924 23.787 9.86197 23.9797 9.85857C24.2576 9.85202 24.5181 9.72172 24.6902 9.50327L27.3546 5.95068C27.649 5.55825 27.5695 5.00151 27.177 4.70724Z" />
<path d="M3.55261 9.85853C3.7453 9.86193 3.9334 9.7992 4.08546 9.68088C4.4779 9.38653 4.55738 8.82988 4.26311 8.43744L1.59875 4.88485C1.3044 4.49242 0.74775 4.41294 0.355313 4.70721C-0.0371246 5.00147 -0.116598 5.55821 0.177666 5.95065L2.84211 9.50324C3.01415 9.72168 3.27467 9.8519 3.55261 9.85853Z" />
<path d="M3.55261 9.85853C3.7453 9.86193 3.9334 9.7992 4.08546 9.68088C4.4779 9.38653 4.55738 8.82988 4.26311 8.43744L1.59875 4.88485C1.3044 4.49242 0.74775 4.41294 0.355313 4.70721C-0.0371246 5.00147 -0.116598 5.55821 0.177666 5.95065L2.84211 9.50324C3.01415 9.72168 3.27467 9.8519 3.55261 9.85853Z" />
</svg>
